<?xml version="1.0" encoding="UTF-8" standalone="no"?>
<!DOCTYPE svg PUBLIC "-//W3C//DTD SVG 1.1//EN" "http://www.w3.org/Graphics/SVG/1.1/DTD/svg11.dtd">
<svg xmlns="http://www.w3.org/2000/svg" version="1.1" viewBox="0 0 360 338">
<path fill="#fefefe" d="M 69.46,319.50 Q 68.37,319.77 68.21,318.75 L 86.19,277.82 A 1.12,1.11 -75.8 0 0 85.27,276.25 Q 77.84,275.70 70.40,275.55 Q 66.44,275.46 64.81,274.42 Q 62.16,272.73 61.71,269.00 L 61.96,183.00 Q 61.90,111.41 62.19,39.81 Q 62.22,31.81 61.71,19.75 Q 62.67,13.25 69.75,13.25 Q 132.97,13.25 196.20,13.25 Q 202.62,13.25 203.76,13.58 Q 208.28,14.90 208.35,21.00 Q 208.50,33.25 208.74,45.50 Q 208.82,49.67 207.75,52.75 Q 206.79,55.52 203.75,56.75 Q 200.71,57.98 195.96,57.84 Q 192.61,57.74 192.53,57.74 Q 153.77,57.58 115.24,58.00 Q 113.28,58.02 113.25,59.98 Q 112.82,91.76 112.99,123.52 Q 112.99,123.59 112.88,125.46 Q 112.65,129.39 116.86,130.60 Q 119.11,131.25 121.45,131.25 L 175.77,131.25 Q 177.92,131.25 176.85,133.10 L 153.17,173.89 A 2.27,2.24 15.0 0 1 151.22,175.00 Q 137.19,175.00 123.36,175.00 Q 120.89,175.00 119.16,175.31 Q 116.81,175.74 115.08,176.42 Q 113.00,177.23 113.00,179.46 L 113.00,242.17 Q 113.00,243.43 112.38,244.54 Q 97.54,271.06 82.06,297.32 Q 79.92,300.95 75.84,308.45 Q 72.79,314.06 69.46,319.50 Z"/>
<path fill="#879c81" fill-opacity="0.992" d="M 252.04,26.00 Q 252.04,24.70 250.79,25.00 Q 252.90,21.58 254.86,18.08 Q 254.94,17.93 255.06,17.82 Q 255.79,17.11 255.26,18.29 Q 253.56,22.11 252.04,26.00 Z"/>
<path fill="#514d4a" fill-opacity="0.976" d="M 61.71,19.75 Q 62.22,31.81 62.19,39.81 Q 61.90,111.41 61.96,183.00 Q 61.56,183.00 61.56,182.44 Q 61.66,126.98 61.46,20.50 Q 61.38,20.01 61.71,19.75 Z"/>
<path fill="#514d4a" fill-opacity="0.976" d="M 61.46,20.50 Q 61.66,126.98 61.56,182.44 Q 61.56,183.00 61.96,183.00 L 61.71,269.00 Q 61.27,267.89 61.25,266.25 Q 60.89,238.38 60.94,219.25 Q 61.19,119.87 61.46,20.50 Z"/>
<path fill="#fefefe" d="M 250.79,25.00 Q 252.04,24.70 252.04,26.00 Q 242.44,46.80 233.69,68.14 A 1.22,1.22 10.9 0 0 234.83,69.82 Q 243.19,69.75 251.27,70.58 Q 263.90,71.88 275.23,77.61 Q 296.11,88.16 303.50,109.25 Q 305.88,116.04 307.01,124.67 Q 307.72,130.11 307.71,140.37 Q 307.69,152.56 308.00,164.75 Q 308.19,172.19 306.85,181.46 Q 305.46,191.16 303.01,197.68 Q 294.94,219.19 273.05,229.32 Q 270.30,230.59 271.62,233.31 Q 293.09,277.61 314.53,322.08 Q 316.41,325.97 315.75,329.00 Q 315.30,331.10 313.26,331.99 Q 312.18,332.47 309.67,332.60 Q 297.89,333.21 286.10,333.06 Q 285.95,333.06 278.91,333.12 Q 271.10,333.18 265.31,331.44 Q 263.71,330.96 262.33,329.20 Q 261.58,328.25 260.53,326.05 Q 239.85,282.65 219.91,238.91 Q 219.00,236.91 217.78,236.27 Q 216.31,235.50 214.25,235.50 Q 205.00,235.50 195.75,235.48 Q 192.08,235.47 188.32,236.29 Q 186.29,236.73 185.90,238.76 Q 185.00,243.43 185.16,248.39 Q 185.44,257.04 185.44,257.11 Q 184.97,291.64 185.25,303.75 Q 185.55,317.12 185.10,326.16 Q 184.98,328.65 184.37,329.72 Q 183.40,331.43 181.27,332.06 Q 178.57,332.87 175.75,332.92 Q 160.62,333.16 145.50,333.28 Q 139.48,333.32 136.56,331.44 Q 133.87,329.70 133.85,325.25 Q 133.59,278.88 134.00,232.50 Q 134.02,229.70 134.37,227.76 Q 134.68,226.06 136.18,223.46 Q 160.18,181.95 184.20,140.42 Q 184.98,139.06 185.01,140.63 Q 185.33,163.12 185.25,186.00 Q 185.23,190.68 186.54,193.25 Q 188.07,194.25 191.44,194.31 Q 209.34,194.64 227.25,194.56 Q 232.40,194.54 237.50,193.79 Q 250.49,192.09 254.41,181.69 Q 256.00,177.47 256.00,166.13 Q 256.00,154.03 256.00,141.94 Q 256.00,131.95 254.49,127.75 Q 251.37,119.10 242.58,116.13 Q 238.53,114.76 228.76,114.80 Q 214.91,114.85 201.62,114.52 A 1.28,1.28 -74.7 0 1 200.53,112.61 Q 214.26,88.24 228.44,64.19 Q 239.90,44.76 250.79,25.00 ZM 307.51,133.92 A 0.12 0.12 0.0 0 0 307.39,133.80 L 307.37,133.80 A 0.12 0.12 0.0 0 0 307.25,133.92 L 307.25,159.34 A 0.12 0.12 0.0 0 0 307.37,159.46 L 307.39,159.46 A 0.12 0.12 0.0 0 0 307.51,159.34 L 307.51,133.92 Z"/>
<rect fill="#fefefe" x="307.25" y="133.80" width="0.26" height="25.66" rx="0.12"/>
<path fill="#070202" fill-opacity="0.922" d="M 186.54,193.25 Q 187.05,193.36 187.53,193.55 Q 188.05,193.75 188.51,193.75 Q 213.00,193.74 237.50,193.79 Q 232.40,194.54 227.25,194.56 Q 209.34,194.64 191.44,194.31 Q 188.07,194.25 186.54,193.25 Z"/>
<path fill="#879c81" fill-opacity="0.992" d="M 68.21,318.75 Q 68.37,319.77 69.46,319.50 Q 67.76,323.25 65.26,326.53 Q 64.60,327.40 64.89,326.51 Q 66.24,322.49 68.21,318.75 Z"/>
</svg>
